<svg width="31" height="40" viewBox="0 0 31 40" fill="none" xmlns="http://www.w3.org/2000/svg">
<path d="M2.03478 28.5063C1.86252 28.3035 1.68671 28.1081 1.50604 27.925C0.469692 26.8746 3.95444 29.5406 4.37351 29.9575C5.55765 31.1355 6.72035 32.3184 7.54018 33.7185C7.87251 34.286 8.1485 34.8892 8.34674 35.5422C8.3678 35.6116 8.3855 35.6765 8.40027 35.7369C8.40958 35.6555 8.42268 35.5653 8.44045 35.4663C8.57905 34.6936 9.01288 33.6796 9.43539 32.8752C9.53674 32.6575 9.6488 32.4339 9.7711 32.199C9.90728 31.9375 10.0536 31.6835 10.2097 31.4376C10.7811 30.2354 11.29 28.8754 12.4699 28.1719C13.1089 27.7909 13.705 27.0653 14.3253 26.5763C15.1559 25.9215 14.3864 27.5082 14.1566 27.754C13.6591 28.2863 13.1681 28.8297 12.7057 29.3953C12.135 30.5124 11.7534 31.8084 11.1955 32.8828C10.6833 33.8691 9.78434 34.6036 9.28382 35.6182C8.91164 36.3727 8.72495 37.1088 8.15932 37.7458C7.14173 38.8918 6.58941 35.8493 5.64794 34.8584C4.44543 33.5927 3.99057 31.9502 3 30.5C2.70449 30.0674 2.41001 29.1372 2.03478 28.5063Z" fill="#666666"/>
<path d="M29 2.10974C24.2278 2.10974 18.2944 1.09075 14.8313 5.26303C11.1701 9.67405 8.95198 15.4816 8.15932 21.1055C7.65911 24.6544 7.40966 28.2678 7.40966 31.8571C7.40966 32.297 7.78511 33.8706 7.39092 33.8706C5.90738 33.8706 4.29012 31.3401 3.5114 30.3754C2.86403 29.5735 2.22343 28.6521 1.50604 27.925M1.50604 27.925C0.469692 26.8746 3.95444 29.5406 4.37351 29.9575C6.03766 31.613 7.65947 33.2784 8.34674 35.5422C8.65895 36.5707 8.23353 36.6197 8.44045 35.4663C8.61671 34.4837 9.27041 33.1108 9.7711 32.275C10.5733 30.9359 11.003 29.0465 12.4699 28.1719C13.1089 27.7909 13.705 27.0653 14.3253 26.5763C15.1559 25.9215 14.3864 27.5082 14.1566 27.754C12.9431 29.0523 11.7691 30.4161 10.9518 32.009C10.5536 32.7852 10.0474 34.0618 9.50872 34.6684C9.31531 34.8863 8.75905 36.7532 8.75905 35.7892C8.75905 34.3819 9.11995 33.4495 9.7711 32.199C10.581 30.6437 11.7478 29.3558 13.2196 28.4378C13.7969 28.0777 14.5647 26.9267 13.5 28.1719C12.4108 29.4457 11.9755 31.3807 11.1955 32.8828C10.6833 33.8691 9.78434 34.6036 9.28382 35.6182C8.91164 36.3727 8.72495 37.1088 8.15932 37.7458C7.14173 38.8918 6.58941 35.8493 5.64794 34.8584C4.44543 33.5927 3.99057 31.9502 3 30.5C2.57883 29.8834 2.15976 28.2562 1.50604 27.925Z" stroke="#666666" stroke-width="2.6" stroke-linecap="round"/>
</svg>
